<?xml version="1.0" encoding="UTF-8" standalone="no"?>
<!DOCTYPE svg PUBLIC "-//W3C//DTD SVG 1.1//EN" "http://www.w3.org/Graphics/SVG/1.1/DTD/svg11.dtd">
<svg width="100%" height="100%" viewBox="0 0 543 476" version="1.1" xmlns="http://www.w3.org/2000/svg" xmlns:xlink="http://www.w3.org/1999/xlink" xml:space="preserve" xmlns:serif="http://www.serif.com/" style="fill-rule:evenodd;clip-rule:evenodd;stroke-linejoin:round;stroke-miterlimit:2;">
    <g transform="matrix(-0.000595102,1.02666,-1.02669,-0.00059512,41,40)">
        <circle cx="0" cy="0" r="37.483" style="fill:rgb(255,0,0);"/>
    </g>
    <g transform="matrix(-0.000595102,1.02666,-1.02669,-0.00059512,118,40)">
        <circle cx="0" cy="0" r="37.483" style="fill:rgb(255,0,0);"/>
    </g>
    <g transform="matrix(-0.000595102,1.02666,-1.02669,-0.00059512,195,40)">
        <circle cx="0" cy="0" r="37.483" style="fill:rgb(255,0,0);"/>
    </g>
    <g transform="matrix(-0.000595102,1.02666,-1.02669,-0.00059512,271,40)">
        <circle cx="0" cy="0" r="37.483" style="fill:rgb(255,0,0);"/>
    </g>
    <g transform="matrix(-0.000595102,1.02666,-1.02669,-0.00059512,348,40)">
        <circle cx="0" cy="0" r="37.483" style="fill:rgb(255,0,0);"/>
    </g>
    <g transform="matrix(-0.000595102,1.02666,-1.02669,-0.00059512,425,40)">
        <circle cx="0" cy="0" r="37.483" style="fill:rgb(255,0,0);"/>
    </g>
    <g transform="matrix(-0.000595102,1.02666,-1.02669,-0.00059512,502,40)">
        <circle cx="0" cy="0" r="37.483" style="fill:rgb(255,0,0);"/>
    </g>
    <g transform="matrix(-0.000595102,1.02666,-1.02669,-0.00059512,41,119)">
        <circle cx="0" cy="0" r="37.483" style="fill:rgb(255,0,0);"/>
    </g>
    <g transform="matrix(-0.000595102,1.02666,-1.02669,-0.00059512,118,119)">
        <circle cx="0" cy="0" r="37.483" style="fill:rgb(255,0,0);"/>
    </g>
    <g transform="matrix(-0.000595102,1.02666,-1.02669,-0.00059512,195,119)">
        <circle cx="0" cy="0" r="37.483" style="fill:rgb(255,0,0);"/>
    </g>
    <g transform="matrix(-0.000595102,1.02666,-1.02669,-0.00059512,271,119)">
        <circle cx="0" cy="0" r="37.483" style="fill:rgb(255,0,0);"/>
    </g>
    <g transform="matrix(-0.000595102,1.02666,-1.02669,-0.00059512,348,119)">
        <circle cx="0" cy="0" r="37.483" style="fill:rgb(255,0,0);"/>
    </g>
    <g transform="matrix(-0.000595102,1.02666,-1.02669,-0.00059512,425,119)">
        <circle cx="0" cy="0" r="37.483" style="fill:rgb(255,0,0);"/>
    </g>
    <g transform="matrix(-0.000595102,1.02666,-1.02669,-0.00059512,502,119)">
        <circle cx="0" cy="0" r="37.483" style="fill:rgb(255,0,0);"/>
    </g>
    <g transform="matrix(-0.000595102,1.02666,-1.02669,-0.00059512,41,198)">
        <circle cx="0" cy="0" r="37.483" style="fill:rgb(255,0,0);"/>
    </g>
    <g transform="matrix(-0.000595102,1.02666,-1.02669,-0.00059512,118,198)">
        <circle cx="0" cy="0" r="37.483" style="fill:rgb(255,0,0);"/>
    </g>
    <g transform="matrix(-0.000595102,1.02666,-1.02669,-0.00059512,194,198)">
        <circle cx="0" cy="0" r="37.483" style="fill:rgb(255,0,0);"/>
    </g>
    <g transform="matrix(-0.000595102,1.02666,-1.02669,-0.00059512,271,198)">
        <circle cx="0" cy="0" r="37.483" style="fill:rgb(255,0,0);"/>
    </g>
    <g transform="matrix(-0.000595102,1.02666,-1.02669,-0.00059512,348,198)">
        <circle cx="0" cy="0" r="37.483" style="fill:rgb(255,0,0);"/>
    </g>
    <g transform="matrix(-0.000595102,1.02666,-1.02669,-0.00059512,425,198)">
        <circle cx="0" cy="0" r="37.483" style="fill:rgb(255,0,0);"/>
    </g>
    <g transform="matrix(-0.000595102,1.02666,-1.02669,-0.00059512,502,198)">
        <circle cx="0" cy="0" r="37.483" style="fill:rgb(255,0,0);"/>
    </g>
    <g transform="matrix(-0.000595102,1.02666,-1.02669,-0.00059512,41,277)">
        <circle cx="0" cy="0" r="37.483" style="fill:rgb(255,0,0);"/>
    </g>
    <g transform="matrix(-0.000595102,1.02666,-1.02669,-0.00059512,118,277)">
        <circle cx="0" cy="0" r="37.483" style="fill:rgb(255,0,0);"/>
    </g>
    <g transform="matrix(-0.000595102,1.02666,-1.02669,-0.00059512,195,277)">
        <circle cx="0" cy="0" r="37.483" style="fill:rgb(255,0,0);"/>
    </g>
    <g transform="matrix(-0.000595102,1.02666,-1.02669,-0.00059512,271,277)">
        <circle cx="0" cy="0" r="37.483" style="fill:rgb(255,0,0);"/>
    </g>
    <g transform="matrix(-0.000595102,1.02666,-1.02669,-0.00059512,348,277)">
        <circle cx="0" cy="0" r="37.483" style="fill:rgb(255,0,0);"/>
    </g>
    <g transform="matrix(-0.000595102,1.02666,-1.02669,-0.00059512,425,277)">
        <circle cx="0" cy="0" r="37.483" style="fill:rgb(255,0,0);"/>
    </g>
    <g transform="matrix(-0.000595102,1.02666,-1.02669,-0.00059512,502,277)">
        <circle cx="0" cy="0" r="37.483" style="fill:rgb(255,0,0);"/>
    </g>
    <g transform="matrix(-0.000595102,1.02666,-1.02669,-0.00059512,41,357)">
        <circle cx="0" cy="0" r="37.483" style="fill:rgb(255,0,0);"/>
    </g>
    <g transform="matrix(-0.000595102,1.02666,-1.02669,-0.00059512,118,357)">
        <circle cx="0" cy="0" r="37.483" style="fill:rgb(255,0,0);"/>
    </g>
    <g transform="matrix(-0.000595102,1.02666,-1.02669,-0.00059512,195,357)">
        <circle cx="0" cy="0" r="37.483" style="fill:rgb(255,0,0);"/>
    </g>
    <g transform="matrix(-0.000595102,1.02666,-1.02669,-0.00059512,271,357)">
        <circle cx="0" cy="0" r="37.483" style="fill:rgb(255,0,0);"/>
    </g>
    <g transform="matrix(-0.000595102,1.02666,-1.02669,-0.00059512,348,357)">
        <circle cx="0" cy="0" r="37.483" style="fill:rgb(255,0,0);"/>
    </g>
    <g transform="matrix(-0.000595102,1.02666,-1.02669,-0.00059512,425,357)">
        <circle cx="0" cy="0" r="37.483" style="fill:rgb(255,0,0);"/>
    </g>
    <g transform="matrix(-0.000595102,1.02666,-1.02669,-0.00059512,502,357)">
        <circle cx="0" cy="0" r="37.483" style="fill:rgb(255,0,0);"/>
    </g>
    <g transform="matrix(-0.000595102,1.02666,-1.02669,-0.00059512,41,436)">
        <circle cx="0" cy="0" r="37.483" style="fill:rgb(255,0,0);"/>
    </g>
    <g transform="matrix(-0.000595102,1.02666,-1.02669,-0.00059512,118,436)">
        <circle cx="0" cy="0" r="37.483" style="fill:rgb(255,0,0);"/>
    </g>
    <g transform="matrix(-0.000595102,1.02666,-1.02669,-0.00059512,195,436)">
        <circle cx="0" cy="0" r="37.483" style="fill:rgb(255,0,0);"/>
    </g>
    <g transform="matrix(-0.000595102,1.02666,-1.02669,-0.00059512,271,436)">
        <circle cx="0" cy="0" r="37.483" style="fill:rgb(255,0,0);"/>
    </g>
    <g transform="matrix(-0.000595102,1.02666,-1.02669,-0.00059512,348,436)">
        <circle cx="0" cy="0" r="37.483" style="fill:rgb(255,0,0);"/>
    </g>
    <g transform="matrix(-0.000595102,1.02666,-1.02669,-0.00059512,425,436)">
        <circle cx="0" cy="0" r="37.483" style="fill:rgb(255,0,0);"/>
    </g>
    <g transform="matrix(-0.000595102,1.02666,-1.02669,-0.00059512,502,436)">
        <circle cx="0" cy="0" r="37.483" style="fill:rgb(255,0,0);"/>
    </g>
</svg>
